<?xml version="1.0" standalone="no"?>
<!DOCTYPE svg PUBLIC "-//W3C//DTD SVG 1.1//EN" "http://www.w3.org/Graphics/SVG/1.1/DTD/svg11.dtd" >
<svg xmlns="http://www.w3.org/2000/svg" xmlns:xlink="http://www.w3.org/1999/xlink" version="1.1">
<metadata>
Created by FontForge 20161003 at Sat Jul 27 02:07:07 2019
 By www-data
(c) 2015 Scott Fial
</metadata>
<defs>
<font id="TamzenBold" horiz-adv-x="1000" >
  <font-face 
    font-family="Tamzen"
    font-weight="700"
    font-stretch="normal"
    units-per-em="2000"
    panose-1="0 0 0 0 0 0 0 0 0 0"
    ascent="1400"
    descent="-600"
    x-height="800"
    cap-height="1000"
    bbox="0 -600 1000 1400"
    underline-thickness="100"
    underline-position="-150"
    unicode-range="U+0002-00FF"
  />
    <missing-glyph />
    <glyph glyph-name=".notdef" horiz-adv-x="0" 
 />
    <glyph glyph-name=".null" 
d="M800 0h-700v800h700v-800zM600 100v600h-300v-600h300z" />
    <glyph glyph-name=".null" 
d="M800 0h-700v800h700v-800zM600 100v600h-300v-600h300z" />
    <glyph glyph-name="nonmarkingreturn" unicode="&#xd;" 
d="M400 500h600v-100h-400v-1000h-200v1100z" />
    <glyph glyph-name="space" unicode=" " 
 />
    <glyph glyph-name="uni0002" 
d="M0 100v100h100v-100h-100zM0 0h100v-100h-100v100zM0 500v100h100v-100h-100zM0 300v100h100v-100h-100zM0 700v100h100v-100h-100zM0 900v100h100v-100h-100zM0 1100v100h100v-100h-100zM0 1300v100h100v-100h-100zM800 -100v100h100v-100h-100zM800 -200h100v-100h-100
v100zM800 -300v-100h-100v100h100zM800 -400h100v-100h-100v100zM800 -500v-100h-100v100h100zM300 -100h100v-100h-100v100zM300 -200v-100h-100v100h100zM300 -300h100v-100h-100v100zM300 -400v-100h-100v100h100zM300 -500h100v-100h-100v100zM600 200h-100v100h100
v-100zM600 100v100h100v-100h-100zM600 0h-100v100h100v-100zM600 500v-100h-100v100h100zM600 400h100v-100h-100v100zM600 700v-100h-100v100h100zM600 600h100v-100h-100v100zM600 1000h-100v100h100v-100zM600 900v100h100v-100h-100zM600 800h-100v100h100v-100z
M600 1200h-100v100h100v-100zM600 1100v100h100v-100h-100zM600 1300v100h100v-100h-100zM100 1200v100h100v-100h-100zM100 1100h100v-100h-100v100zM100 200v100h100v-100h-100zM100 100h100v-100h-100v100zM100 500h100v-100h-100v100zM100 700h100v-100h-100v100z
M100 900h100v-100h-100v100zM900 -100h100v-100h-100v100zM900 -300h100v-100h-100v100zM900 -500h100v-100h-100v100zM400 -100v100h100v-100h-100zM400 -200h100v-100h-100v100zM400 -400h100v-100h-100v100zM700 1200v100h100v-100h-100zM700 1100h100v-100h-100v100z
M700 200v100h100v-100h-100zM700 100h100v-100h-100v100zM700 0v-100h-100v100h100zM700 500h100v-100h-100v100zM700 700h100v-100h-100v100zM700 900h100v-100h-100v100zM700 800v-100h-100v100h100zM200 200h100v-100h-100v100zM200 0h100v-100h-100v100zM200 500v100
h100v-100h-100zM200 400h100v-100h-100v100zM200 700v100h100v-100h-100zM200 1000h100v-100h-100v100zM200 1200h100v-100h-100v100zM200 1300v100h100v-100h-100zM500 -100h100v-100h-100v100zM500 -300h100v-100h-100v100zM500 -500h100v-100h-100v100zM0 -200h100v-100
h-100v100zM0 -500v100h100v-100h-100zM800 200h100v-100h-100v100zM800 500v100h100v-100h-100zM800 400h100v-100h-100v100zM800 700v100h100v-100h-100zM800 1000h100v-100h-100v100zM800 1200h100v-100h-100v100zM800 1300v100h100v-100h-100zM300 1200v100h100v-100
h-100zM300 1100h100v-100h-100v100zM300 200v100h100v-100h-100zM300 100h100v-100h-100v100zM300 500h100v-100h-100v100zM300 700h100v-100h-100v100zM300 900h100v-100h-100v100zM600 -200h100v-100h-100v100zM600 -400h100v-100h-100v100zM100 -100h100v-100h-100v100z
M100 -300h100v-100h-100v100zM100 -500h100v-100h-100v100zM900 1200v100h100v-100h-100zM900 1100h100v-100h-100v100zM900 200v100h100v-100h-100zM900 100h100v-100h-100v100zM900 500h100v-100h-100v100zM900 700h100v-100h-100v100zM900 900h100v-100h-100v100z
M400 200h100v-100h-100v100zM400 500v100h100v-100h-100zM400 400h100v-100h-100v100zM400 700v100h100v-100h-100zM400 1000h100v-100h-100v100zM400 1200h100v-100h-100v100zM400 1300v100h100v-100h-100zM700 -100h100v-100h-100v100z" />
    <glyph glyph-name="uni0007" 
d="M100 600v300h100v100h400v-100h100v-300h-100v-100h-400v100h-100zM300 600h200v300h-200v-300z" />
    <glyph glyph-name="uni000B" 
d="M0 400v100h400v900h200v-1000h-600z" />
    <glyph glyph-name="uni000C" 
d="M0 400v100h600v-1100h-200v1000h-400z" />
    <glyph glyph-name="uni000E" 
d="M400 400v1000h200v-900h400v-100h-600z" />
    <glyph glyph-name="uni000F" 
d="M0 400v100h400v900h200v-900h400v-100h-400v-1000h-200v1000h-400z" />
    <glyph glyph-name="uni0012" 
d="M0 400v100h1000v-100h-1000z" />
    <glyph glyph-name="uni0015" 
d="M400 -600v2000h200v-900h400v-100h-400v-1000h-200z" />
    <glyph glyph-name="uni0016" 
d="M0 400v100h400v900h200v-2000h-200v1000h-400z" />
    <glyph glyph-name="uni0017" 
d="M0 400v100h400v900h200v-900h400v-100h-1000z" />
    <glyph glyph-name="uni0018" 
d="M0 400v100h1000v-100h-400v-1000h-200v1000h-400z" />
    <glyph glyph-name="uni0019" 
d="M400 -600v2000h200v-2000h-200z" />
    <glyph glyph-name="uni001E" 
d="M200 100v400h-100v100h100v300h100v100h400v-100h100v-100h-200v100h-200v-300h200v-100h-200v-300h100v-100h100v100h200v-100h-100v-100h-300v100h-100v-100h-200v100h100z" />
    <glyph glyph-name="exclam" unicode="!" 
d="M300 1100h200v-100h100v-300h-100v-200h-200v200h-100v300h100v100zM300 200h200v-200h-200v200z" />
    <glyph glyph-name="quotedbl" unicode="&#x22;" 
d="M100 1200h200v-400h-200v400zM500 1200h200v-400h-200v400z" />
    <glyph glyph-name="numbersign" unicode="#" 
d="M900 1200v-300h100v-100h-200v-400h100v-100h-200v-300h-200v300h-200v-300h-200v300h-100v100h200v400h-100v100h200v300h200v-300h200v300h200zM400 400h200v400h-200v-400z" />
    <glyph glyph-name="dollar" unicode="$" 
d="M200 200h-100v100h200v-100h300v300h-400v100h-100v300h100v100h200v300h200v-300h100v-100h100v-100h-200v100h-300v-300h400v-100h100v-300h-100v-100h-200v-300h-200v300h-100v100z" />
    <glyph glyph-name="percent" unicode="%" 
d="M0 100v100h100v100h100v100h100v100h100v100h100v100h100v100h100v100h200v-100h-100v-100h-100v-100h-100v-100h-100v-100h-100v-100h-100v-100h-100v-100h-200zM0 700v200h100v100h300v-100h100v-200h-100v-100h-300v100h-100zM900 100h-100v-100h-300v100h-100v200
h100v100h300v-100h100v-200zM300 700v200h-100v-200h100zM700 100v200h-100v-200h100z" />
    <glyph glyph-name="ampersand" unicode="&#x26;" 
d="M0 100v400h100v200h-100v300h100v100h300v-100h100v-300h-100v-200h100v-100h100v100h200v-200h-100v-100h100v-100h100v-100h-200v100h-200v-100h-400v100h-100zM200 100h200v100h100v100h-100v100h-100v100h-100v-400zM200 700h100v300h-100v-300z" />
    <glyph glyph-name="quotesingle" unicode="'" 
d="M500 1200v-400h-200v400h200z" />
    <glyph glyph-name="parenleft" unicode="(" 
d="M200 100v600h100v200h100v100h100v100h200v-100h-100v-100h-100v-200h-100v-600h100v-200h100v-100h100v-100h-200v100h-100v100h-100v200h-100z" />
    <glyph glyph-name="parenright" unicode=")" 
d="M200 -200h100v100h100v200h100v600h-100v200h-100v100h-100v100h200v-100h100v-100h100v-200h100v-600h-100v-200h-100v-100h-100v-100h-200v100z" />
    <glyph glyph-name="asterisk" unicode="*" 
d="M900 400v-100h-200v100h-100v-200h-200v200h-100v-100h-200v100h100v100h100v100h-100v100h-100v100h200v-100h100v200h200v-200h100v100h200v-100h-100v-100h-100v-100h100v-100h100z" />
    <glyph glyph-name="plus" unicode="+" 
d="M400 200v300h-300v100h300v300h200v-300h300v-100h-300v-300h-200z" />
    <glyph glyph-name="comma" unicode="," 
d="M400 0h-100v200h300v-400h-100v-100h-300v100h200v200z" />
    <glyph glyph-name="hyphen" unicode="-" 
d="M100 500v100h800v-100h-800z" />
    <glyph glyph-name="period" unicode="." 
d="M600 200v-200h-300v200h300z" />
    <glyph glyph-name="slash" unicode="/" 
d="M900 1200v-200h-100v-200h-100v-200h-100v-200h-100v-200h-100v-200h-100v-200h-200v200h100v200h100v200h100v200h100v200h100v200h100v200h200z" />
    <glyph glyph-name="zero" unicode="0" 
d="M200 100h-100v800h100v100h500v-100h100v-800h-100v-100h-500v100zM400 500v100h100v100h100v200h-300v-400h100zM400 400v-100h-100v-200h300v400h-100v-100h-100z" />
    <glyph glyph-name="one" unicode="1" 
d="M900 100v-100h-800v100h300v600h-100v-100h-200v100h100v100h100v100h100v100h200v-900h300z" />
    <glyph glyph-name="two" unicode="2" 
d="M200 200v100h100v100h100v100h100v100h100v300h-300v-100h-200v100h100v100h500v-100h100v-300h-100v-100h-100v-100h-100v-100h-100v-100h-100v-100h500v-100h-700v200h100z" />
    <glyph glyph-name="three" unicode="3" 
d="M200 100h-100v100h200v-100h300v400h-300v100h100v100h100v100h100v100h-500v100h700v-200h-100v-100h-100v-100h100v-100h100v-400h-100v-100h-500v100z" />
    <glyph glyph-name="four" unicode="4" 
d="M900 400v-100h-100v-300h-200v300h-500v200h100v100h100v100h100v100h100v100h100v100h200v-600h100zM400 500h-100v-100h300v300h-100v-100h-100v-100z" />
    <glyph glyph-name="five" unicode="5" 
d="M800 100h-100v-100h-500v100h-100v100h200v-100h300v400h-500v500h700v-100h-500v-300h400v-100h100v-400z" />
    <glyph glyph-name="six" unicode="6" 
d="M800 100h-100v-100h-500v100h-100v700h100v100h100v100h300v-100h-200v-100h-100v-200h400v-100h100v-400zM300 100h300v400h-300v-400z" />
    <glyph glyph-name="seven" unicode="7" 
d="M800 800h-100v-200h-100v-200h-100v-200h-100v-200h-200v200h100v200h100v200h100v200h100v100h-500v100h700v-200z" />
    <glyph glyph-name="eight" unicode="8" 
d="M200 100h-100v400h100v100h-100v300h100v100h500v-100h100v-300h-100v-100h100v-400h-100v-100h-500v100zM600 100v400h-300v-400h300zM600 600v300h-300v-300h300z" />
    <glyph glyph-name="nine" unicode="9" 
d="M800 200h-100v-100h-100v-100h-300v100h200v100h100v200h-400v100h-100v400h100v100h500v-100h100v-700zM300 500h300v400h-300v-400z" />
    <glyph glyph-name="colon" unicode=":" 
d="M600 200v-200h-300v200h300zM600 600h-300v200h300v-200z" />
    <glyph glyph-name="semicolon" unicode=";" 
d="M200 -200h200v200h-100v200h300v-400h-100v-100h-300v100zM300 600v200h300v-200h-300z" />
    <glyph glyph-name="less" unicode="&#x3c;" 
d="M200 500v100h100v100h100v100h100v100h100v100h200v-100h-100v-100h-100v-100h-100v-100h-100v-100h100v-100h100v-100h100v-100h100v-100h-200v100h-100v100h-100v100h-100v100h-100z" />
    <glyph glyph-name="equal" unicode="=" 
d="M800 400v-100h-700v100h700zM800 700h-700v100h700v-100z" />
    <glyph glyph-name="greater" unicode="&#x3e;" 
d="M200 200v100h100v100h100v100h100v100h-100v100h-100v100h-100v100h-100v100h200v-100h100v-100h100v-100h100v-100h100v-100h-100v-100h-100v-100h-100v-100h-100v-100h-200v100h100z" />
    <glyph glyph-name="question" unicode="?" 
d="M900 800h-100v-100h-100v-100h-100v-100h-200v100h100v100h100v100h100v200h-400v-100h-200v100h100v100h600v-100h100v-200zM400 200h200v-200h-200v200z" />
    <glyph glyph-name="at" unicode="@" 
d="M0 0v1000h100v100h100v100h500v-100h100v-100h100v-800h-500v100h-100v400h100v100h300v200h-100v100h-300v-100h-100v-1000h100v-100h500v-100h-600v100h-100v100h-100zM500 300h200v400h-200v-400z" />
    <glyph glyph-name="A" unicode="A" 
d="M800 0h-200v400h-300v-400h-200v800h100v100h100v100h300v-100h100v-100h100v-800zM300 500h300v300h-300v-300z" />
    <glyph glyph-name="B" unicode="B" 
d="M800 100h-100v-100h-600v1000h600v-100h100v-300h-100v-100h100v-400zM300 100h300v400h-300v-400zM300 600h300v300h-300v-300z" />
    <glyph glyph-name="C" unicode="C" 
d="M800 100v-100h-500v100h-100v100h-100v600h100v100h100v100h500v-100h-400v-100h-100v-600h100v-100h400z" />
    <glyph glyph-name="D" unicode="D" 
d="M800 200h-100v-100h-100v-100h-500v1000h500v-100h100v-100h100v-600zM300 100h200v100h100v600h-100v100h-200v-800z" />
    <glyph glyph-name="E" unicode="E" 
d="M800 100v-100h-700v1000h700v-100h-500v-300h400v-100h-400v-400h500z" />
    <glyph glyph-name="F" unicode="F" 
d="M800 1000v-100h-500v-300h400v-100h-400v-500h-200v1000h700z" />
    <glyph glyph-name="G" unicode="G" 
d="M800 0h-500v100h-100v100h-100v600h100v100h100v100h500v-100h-400v-100h-100v-600h100v-100h200v300h-100v100h300v-500z" />
    <glyph glyph-name="H" unicode="H" 
d="M800 0h-200v500h-300v-500h-200v1000h200v-400h300v400h200v-1000z" />
    <glyph glyph-name="I" unicode="I" 
d="M400 100v800h-300v100h800v-100h-300v-800h300v-100h-800v100h300z" />
    <glyph glyph-name="J" unicode="J" 
d="M800 100h-100v-100h-500v100h-100v300h200v-300h300v900h200v-900z" />
    <glyph glyph-name="K" unicode="K" 
d="M900 100v-100h-200v100h-100v100h-100v100h-100v100h-100v-400h-200v1000h200v-400h100v100h100v100h100v100h100v100h200v-100h-100v-100h-100v-100h-100v-100h-100v-200h100v-100h100v-100h100v-100h100z" />
    <glyph glyph-name="L" unicode="L" 
d="M800 100v-100h-700v1000h200v-900h500z" />
    <glyph glyph-name="M" unicode="M" 
d="M900 0h-200v700h-100v-100h-200v100h-100v-700h-200v1000h200v-100h100v-100h200v100h100v100h200v-1000z" />
    <glyph glyph-name="N" unicode="N" 
d="M900 0h-200v400h-100v100h-100v100h-100v100h-100v-700h-200v1000h200v-100h100v-100h100v-100h100v-100h100v400h200v-1000z" />
    <glyph glyph-name="O" unicode="O" 
d="M900 200h-100v-100h-100v-100h-400v100h-100v100h-100v600h100v100h100v100h400v-100h100v-100h100v-600zM400 200v-100h200v100h100v600h-100v100h-200v-100h-100v-600h100z" />
    <glyph glyph-name="P" unicode="P" 
d="M800 500h-100v-100h-400v-400h-200v1000h600v-100h100v-400zM300 500h300v400h-300v-400z" />
    <glyph glyph-name="Q" unicode="Q" 
d="M900 200h-100v-100h-100v-200h200v-100h-300v100h-100v100h-200v100h-100v100h-100v600h100v100h100v100h400v-100h100v-100h100v-600zM400 200v-100h200v100h100v600h-100v100h-200v-100h-100v-600h100z" />
    <glyph glyph-name="R" unicode="R" 
d="M400 400h-100v-400h-200v1000h600v-100h100v-400h-100v-100h-100v-100h100v-100h100v-200h-200v200h-100v100h-100v100zM600 500v400h-300v-400h300z" />
    <glyph glyph-name="S" unicode="S" 
d="M800 100h-100v-100h-600v100h500v300h-200v100h-200v100h-100v300h100v100h600v-100h-500v-300h200v-100h200v-100h100v-300z" />
    <glyph glyph-name="T" unicode="T" 
d="M400 0v900h-300v100h800v-100h-300v-900h-200z" />
    <glyph glyph-name="U" unicode="U" 
d="M800 100h-100v-100h-500v100h-100v900h200v-900h300v900h200v-900z" />
    <glyph glyph-name="V" unicode="V" 
d="M800 400h-100v-200h-100v-200h-300v200h-100v200h-100v600h200v-600h100v-200h100v200h100v600h200v-600z" />
    <glyph glyph-name="W" unicode="W" 
d="M900 0h-200v100h-100v100h-200v-100h-100v-100h-200v1000h200v-700h100v200h200v-200h100v700h200v-1000z" />
    <glyph glyph-name="X" unicode="X" 
d="M200 300v100h100v200h-100v100h-100v300h200v-300h100v-100h100v100h100v300h200v-300h-100v-100h-100v-200h100v-100h100v-300h-200v300h-100v100h-100v-100h-100v-300h-200v300h100z" />
    <glyph glyph-name="Y" unicode="Y" 
d="M800 700v-100h-100v-100h-100v-500h-200v500h-100v100h-100v100h-100v300h200v-300h100v-100h200v100h100v300h200v-300h-100z" />
    <glyph glyph-name="Z" unicode="Z" 
d="M200 300v100h100v100h100v100h100v100h100v200h-500v100h700v-300h-100v-100h-100v-100h-100v-100h-100v-100h-100v-200h500v-100h-700v300h100z" />
    <glyph glyph-name="bracketleft" unicode="[" 
d="M400 -200h400v-100h-600v1400h600v-100h-400v-1200z" />
    <glyph glyph-name="backslash" unicode="\" 
d="M900 0v-200h-200v200h-100v200h-100v200h-100v200h-100v200h-100v200h-100v200h200v-200h100v-200h100v-200h100v-200h100v-200h100v-200h100z" />
    <glyph glyph-name="bracketright" unicode="]" 
d="M100 1100h600v-1400h-600v100h400v1200h-400v100z" />
    <glyph glyph-name="asciicircum" unicode="^" 
d="M800 700h-200v100h-100v100h-100v-100h-100v-100h-200v100h100v100h100v100h100v100h100v-100h100v-100h100v-100h100v-100z" />
    <glyph glyph-name="underscore" unicode="_" 
d="M0 -200h1000v-100h-1000v100z" />
    <glyph glyph-name="grave" unicode="`" 
d="M300 1100h-100v100h200v-100h100v-100h100v-100h100v-100h-200v100h-100v100h-100v100z" />
    <glyph glyph-name="a" unicode="a" 
d="M800 0h-200v100h-100v100h100v200h-300v-300h200v-100h-300v100h-100v300h100v100h400v200h-400v100h500v-100h100v-700z" />
    <glyph glyph-name="b" unicode="b" 
d="M900 200h-100v-100h-100v-100h-600v1100h200v-400h100v-100h-100v-500h300v100h100v400h-100v100h-200v100h300v-100h100v-100h100v-400z" />
    <glyph glyph-name="c" unicode="c" 
d="M200 200h-100v400h100v100h100v100h400v-100h100v-100h-200v100h-200v-100h-100v-400h100v-100h200v100h200v-100h-100v-100h-400v100h-100v100z" />
    <glyph glyph-name="d" unicode="d" 
d="M900 1100v-1100h-200v100h-100v100h100v500h-300v-100h-100v-400h100v-100h200v-100h-300v100h-100v100h-100v400h100v100h100v100h400v300h200z" />
    <glyph glyph-name="e" unicode="e" 
d="M200 200h-100v400h100v100h100v100h400v-100h100v-300h-500v-200h100v-100h400v-100h-500v100h-100v100zM400 700v-100h-100v-100h300v200h-200z" />
    <glyph glyph-name="f" unicode="f" 
d="M800 700h-300v-700h-200v700h-200v100h200v300h100v100h400v-100h-300v-300h300v-100z" />
    <glyph glyph-name="g" unicode="g" 
d="M900 -200h-100v-100h-600v100h-100v200h100v200h100v100h-100v100h-100v200h100v100h100v100h400v-100h100v100h200v-100h-100v-300h-100v-100h-100v-100h-300v-100h400v-100h100v-200zM400 400v-100h200v100h100v200h-100v100h-200v-100h-100v-200h100zM300 0v-200h400
v200h-400z" />
    <glyph glyph-name="h" unicode="h" 
d="M800 0h-200v700h-200v100h300v-100h100v-700zM100 1100h200v-400h100v-100h-100v-600h-200v1100z" />
    <glyph glyph-name="i" unicode="i" 
d="M900 100v-100h-800v100h300v600h-300v100h500v-700h300zM400 1000v200h200v-200h-200z" />
    <glyph glyph-name="j" unicode="j" 
d="M100 -200h300v100h100v800h-300v100h500v-900h-100v-100h-100v-100h-400v100zM500 1200h200v-200h-200v200z" />
    <glyph glyph-name="k" unicode="k" 
d="M900 100v-100h-200v100h-100v100h-100v100h-200v-300h-200v1200h200v-700h100v100h100v100h100v100h200v-100h-100v-100h-100v-100h-100v-100h100v-100h100v-100h100v-100h100z" />
    <glyph glyph-name="l" unicode="l" 
d="M400 100v900h-300v100h500v-1000h300v-100h-400v100h-100z" />
    <glyph glyph-name="m" unicode="m" 
d="M800 700h100v-700h-200v700h-100v-700h-200v700h-100v-700h-200v800h700v-100z" />
    <glyph glyph-name="n" unicode="n" 
d="M800 0h-200v700h-200v100h300v-100h100v-700zM100 0v800h200v-100h100v-100h-100v-600h-200z" />
    <glyph glyph-name="o" unicode="o" 
d="M900 200h-100v-100h-100v-100h-400v100h-100v100h-100v400h100v100h100v100h400v-100h100v-100h100v-400zM400 200v-100h200v100h100v400h-100v100h-200v-100h-100v-400h100z" />
    <glyph glyph-name="p" unicode="p" 
d="M900 200h-100v-100h-100v-100h-400v-300h-200v1100h200v-100h100v-100h-100v-500h300v100h100v400h-100v100h-200v100h300v-100h100v-100h100v-400z" />
    <glyph glyph-name="q" unicode="q" 
d="M900 -300h-200v400h-100v100h100v500h-300v-100h-100v-400h100v-100h200v-100h-300v100h-100v100h-100v400h100v100h100v100h600v-1100z" />
    <glyph glyph-name="r" unicode="r" 
d="M800 700v-100h-200v100h-200v100h300v-100h100zM100 0v800h200v-100h100v-100h-100v-600h-200z" />
    <glyph glyph-name="s" unicode="s" 
d="M800 100h-100v-100h-600v100h500v200h-200v100h-200v100h-100v200h100v100h600v-100h-500v-200h200v-100h200v-100h100v-200z" />
    <glyph glyph-name="t" unicode="t" 
d="M800 100v-100h-400v100h-100v600h-200v100h200v200h200v-200h300v-100h-300v-600h300z" />
    <glyph glyph-name="u" unicode="u" 
d="M800 0h-200v100h-100v100h100v600h200v-800zM100 100v700h200v-700h200v-100h-300v100h-100z" />
    <glyph glyph-name="v" unicode="v" 
d="M800 400h-100v-200h-100v-200h-300v200h-100v200h-100v400h200v-400h100v-200h100v200h100v400h200v-400z" />
    <glyph glyph-name="w" unicode="w" 
d="M800 100v-100h-600v100h-100v700h200v-700h100v400h200v-400h100v700h200v-700h-100z" />
    <glyph glyph-name="x" unicode="x" 
d="M200 200v100h100v200h-100v100h-100v200h200v-200h100v-100h100v100h100v200h200v-200h-100v-100h-100v-200h100v-100h100v-200h-200v200h-100v100h-100v-100h-100v-200h-200v200h100z" />
    <glyph glyph-name="y" unicode="y" 
d="M200 200v100h-100v500h200v-500h100v-100h100v100h100v500h200v-900h-100v-100h-100v-100h-400v100h300v100h100v200h-300v100h-100z" />
    <glyph glyph-name="z" unicode="z" 
d="M200 200v100h100v100h100v100h100v100h100v100h-500v100h700v-200h-100v-100h-100v-100h-100v-100h-100v-100h-100v-100h500v-100h-700v200h100z" />
    <glyph glyph-name="braceleft" unicode="{" 
d="M900 1200v-100h-300v-500h-100v-100h-100v-100h100v-100h100v-500h300v-100h-400v100h-100v500h-100v100h-200v100h200v100h100v500h100v100h400z" />
    <glyph glyph-name="bar" unicode="|" 
d="M500 1100v-1300h-200v1300h200z" />
    <glyph glyph-name="braceright" unicode="}" 
d="M900 500v-100h-200v-100h-100v-500h-100v-100h-400v100h300v500h100v100h100v100h-100v100h-100v500h-300v100h400v-100h100v-500h100v-100h200z" />
    <glyph glyph-name="asciitilde" unicode="~" 
d="M100 1100h200v-100h100v-100h-200v-200h-200v300h100v100zM800 800h-100v-100h-200v100h-100v100h200v200h200v-300z" />
    <glyph glyph-name="nonbreakingspace" unicode="&#xa0;" 
 />
    <glyph glyph-name="exclamdown" unicode="&#xa1;" 
d="M200 100h100v200h200v-200h100v-300h-100v-100h-200v100h-100v300zM300 600v200h200v-200h-200z" />
    <glyph glyph-name="cent" unicode="&#xa2;" 
d="M200 200v100h-100v400h100v100h100v100h100v200h200v-200h100v-100h100v-100h-200v100h-200v-100h-100v-400h100v-100h200v100h200v-100h-100v-100h-100v-200h-200v200h-100v100h-100z" />
    <glyph glyph-name="sterling" unicode="&#xa3;" 
d="M200 100v400h-100v100h100v300h100v100h400v-100h100v-100h-200v100h-200v-300h200v-100h-200v-300h100v-100h100v100h200v-100h-100v-100h-300v100h-100v-100h-200v100h100z" />
    <glyph glyph-name="currency" unicode="&#xa4;" 
d="M0 100v100h100v100h100v100h-100v200h100v100h-100v100h-100v100h200v-100h500v100h200v-100h-100v-100h-100v-100h100v-200h-100v-100h100v-100h100v-100h-200v100h-500v-100h-200zM400 400v-100h100v100h100v200h-100v100h-100v-100h-100v-200h100z" />
    <glyph glyph-name="yen" unicode="&#xa5;" 
d="M900 1000v-100h-100v-100h-100v-100h-100v-100h200v-100h-200v-200h200v-100h-200v-200h-200v200h-200v100h200v200h-200v100h200v100h-100v100h-100v100h-100v100h200v-100h100v-100h200v100h100v100h200z" />
    <glyph glyph-name="brokenbar" unicode="&#xa6;" 
d="M500 1100v-500h-200v500h200zM500 -200h-200v500h200v-500z" />
    <glyph glyph-name="dieresis" unicode="&#xa8;" 
d="M800 1000h-200v200h200v-200zM400 1000h-200v200h200v-200z" />
    <glyph glyph-name="copyright" unicode="&#xa9;" 
d="M900 100h-100v700h100v-700zM200 100h-100v700h100v-700zM200 0v100h100v-100h-100zM200 800v100h100v-100h-100zM400 200v100h-100v300h100v100h300v-100h-200v-300h200v-100h-300zM800 100v-100h-100v100h100zM800 900v-100h-100v100h100zM300 0h400v-100h-400v100z
M300 900v100h400v-100h-400z" />
    <glyph glyph-name="guillemotleft" unicode="&#xab;" 
d="M0 400v100h100v100h100v100h100v100h200v-100h-100v-100h-100v-100h-100v-100h100v-100h100v-100h100v-100h-200v100h-100v100h-100v100h-100zM900 200v-100h-200v100h-100v100h-100v100h-100v100h100v100h100v100h100v100h200v-100h-100v-100h-100v-100h-100v-100h100
v-100h100v-100h100z" />
    <glyph glyph-name="hyphen" unicode="&#xad;" 
d="M100 500v100h800v-100h-800z" />
    <glyph glyph-name="degree" unicode="&#xb0;" 
d="M100 600v300h100v100h400v-100h100v-300h-100v-100h-400v100h-100zM300 600h200v300h-200v-300z" />
    <glyph glyph-name="acute" unicode="&#xb4;" 
d="M500 1100v100h100v100h200v-100h-100v-100h-100v-100h-200v100h100z" />
    <glyph glyph-name="cedilla" unicode="&#xb8;" 
d="M400 0h200v-300h-100v-100h-300v100h200v300z" />
    <glyph glyph-name="guillemotright" unicode="&#xbb;" 
d="M0 100v100h100v100h100v100h100v100h-100v100h-100v100h-100v100h200v-100h100v-100h100v-100h100v-100h-100v-100h-100v-100h-100v-100h-200zM900 500v-100h-100v-100h-100v-100h-100v-100h-200v100h100v100h100v100h100v100h-100v100h-100v100h-100v100h200v-100h100
v-100h100v-100h100z" />
    <glyph glyph-name="questiondown" unicode="&#xbf;" 
d="M900 -100v-100h-100v-100h-600v100h-100v200h100v100h100v100h100v100h200v-100h-100v-100h-100v-100h-100v-200h400v100h200zM400 600v200h200v-200h-200z" />
    <glyph glyph-name="Agrave" unicode="&#xc0;" 
d="M200 800v100h100v100h300v-100h100v-100h100v-800h-200v400h-300v-400h-200v800h100zM200 1200v100h-100v100h200v-100h100v-100h100v-100h-200v100h-100zM600 500v300h-300v-300h300z" />
    <glyph glyph-name="Aacute" unicode="&#xc1;" 
d="M200 800v100h100v100h300v-100h100v-100h100v-800h-200v400h-300v-400h-200v800h100zM400 1100v100h100v100h100v100h200v-100h-100v-100h-100v-100h-200zM600 500v300h-300v-300h300z" />
    <glyph glyph-name="Acircumflex" unicode="&#xc2;" 
d="M200 800v100h100v100h300v-100h100v-100h100v-800h-200v400h-300v-400h-200v800h100zM200 1100v100h100v100h100v100h100v-100h100v-100h100v-100h-200v100h-100v-100h-200zM600 500v300h-300v-300h300z" />
    <glyph glyph-name="Atilde" unicode="&#xc3;" 
d="M200 800v100h100v100h300v-100h100v-100h100v-800h-200v400h-300v-400h-200v800h100zM200 1300v100h200v-100h-100v-200h-200v200h100zM400 1200v100h100v-100h-100zM600 500v300h-300v-300h300zM600 1200v200h200v-200h-100v-100h-200v100h100z" />
    <glyph glyph-name="Adieresis" unicode="&#xc4;" 
d="M200 800v100h100v100h300v-100h100v-100h100v-800h-200v400h-300v-400h-200v800h100zM600 500v300h-300v-300h300zM100 1100v200h200v-200h-200zM500 1100v200h200v-200h-200z" />
    <glyph glyph-name="Aring" unicode="&#xc5;" 
d="M200 700v100h100v200h-100v200h100v100h300v-100h100v-200h-100v-200h100v-100h100v-700h-200v300h-300v-300h-200v700h100zM400 700h-100v-300h300v300h-100v100h-100v-100zM400 1000h100v200h-100v-200z" />
    <glyph glyph-name="AE" unicode="&#xc6;" 
d="M0 0v700h100v100h100v100h100v100h600v-100h-300v-300h200v-100h-200v-400h300v-100h-500v300h-200v-300h-200zM200 400h200v400h-100v-100h-100v-300z" />
    <glyph glyph-name="Ccedilla" unicode="&#xc7;" 
d="M200 200h-100v600h100v100h100v100h500v-100h-400v-100h-100v-600h100v-100h400v-100h-200v-300h-100v-100h-300v100h200v300h-100v100h-100v100z" />
    <glyph glyph-name="Egrave" unicode="&#xc8;" 
d="M800 100v-100h-700v1000h700v-100h-500v-300h400v-100h-400v-400h500zM100 1300v100h200v-100h100v-100h100v-100h-200v100h-100v100h-100z" />
    <glyph glyph-name="Eacute" unicode="&#xc9;" 
d="M800 100v-100h-700v1000h700v-100h-500v-300h400v-100h-400v-400h500zM800 1400v-100h-100v-100h-100v-100h-200v100h100v100h100v100h200z" />
    <glyph glyph-name="Ecircumflex" unicode="&#xca;" 
d="M200 1100v100h100v100h100v100h100v-100h100v-100h100v-100h-200v100h-100v-100h-200zM800 100v-100h-700v1000h700v-100h-500v-300h400v-100h-400v-400h500z" />
    <glyph glyph-name="Edieresis" unicode="&#xcb;" 
d="M800 100v-100h-700v1000h700v-100h-500v-300h400v-100h-400v-400h500zM100 1100v200h200v-200h-200zM500 1100v200h200v-200h-200z" />
    <glyph glyph-name="Igrave" unicode="&#xcc;" 
d="M900 100v-100h-800v100h300v800h-300v100h800v-100h-300v-800h300zM300 1200v100h-100v100h200v-100h100v-100h100v-100h-200v100h-100z" />
    <glyph glyph-name="Iacute" unicode="&#xcd;" 
d="M900 100v-100h-800v100h300v800h-300v100h800v-100h-300v-800h300zM800 1400v-100h-100v-100h-100v-100h-200v100h100v100h100v100h200z" />
    <glyph glyph-name="Icircumflex" unicode="&#xce;" 
d="M900 100v-100h-800v100h300v800h-300v100h800v-100h-300v-800h300zM200 1100v100h100v100h100v100h100v-100h100v-100h100v-100h-200v100h-100v-100h-200z" />
    <glyph glyph-name="Idieresis" unicode="&#xcf;" 
d="M100 1100v200h200v-200h-200zM900 100v-100h-800v100h300v800h-300v100h800v-100h-300v-800h300zM500 1100v200h200v-200h-200z" />
    <glyph glyph-name="Eth" unicode="&#xd0;" 
d="M900 200h-100v-100h-100v-100h-500v500h-100v100h100v400h500v-100h100v-100h100v-600zM400 100h200v100h100v600h-100v100h-200v-300h100v-100h-100v-400z" />
    <glyph glyph-name="Ntilde" unicode="&#xd1;" 
d="M900 0h-200v400h-100v100h-100v100h-100v100h-100v-700h-200v1000h200v-100h100v-100h100v-100h100v-100h100v400h200v-1000zM200 1300v100h200v-100h-100v-200h-200v200h100zM400 1200v100h100v-100h-100zM600 1200v200h200v-200h-100v-100h-200v100h100z" />
    <glyph glyph-name="Ograve" unicode="&#xd2;" 
d="M200 100h-100v800h100v100h500v-100h100v-800h-100v-100h-500v100zM200 1300v100h200v-100h100v-100h100v-100h-200v100h-100v100h-100zM600 100v800h-300v-800h300z" />
    <glyph glyph-name="Oacute" unicode="&#xd3;" 
d="M200 100h-100v800h100v100h500v-100h100v-800h-100v-100h-500v100zM400 1100v100h100v100h100v100h200v-100h-100v-100h-100v-100h-200zM600 100v800h-300v-800h300z" />
    <glyph glyph-name="Ocircumflex" unicode="&#xd4;" 
d="M200 100h-100v800h100v100h500v-100h100v-800h-100v-100h-500v100zM200 1100v100h100v100h100v100h100v-100h100v-100h100v-100h-200v100h-100v-100h-200zM600 100v800h-300v-800h300z" />
    <glyph glyph-name="Otilde" unicode="&#xd5;" 
d="M200 100h-100v800h100v100h500v-100h100v-800h-100v-100h-500v100zM200 1300v100h200v-100h-100v-200h-200v200h100zM400 1200v100h100v-100h-100zM600 100v800h-300v-800h300zM600 1200v200h200v-200h-100v-100h-200v100h100z" />
    <glyph glyph-name="Odieresis" unicode="&#xd6;" 
d="M800 100h-100v-100h-500v100h-100v800h100v100h500v-100h100v-800zM100 1100v200h200v-200h-200zM300 100h300v800h-300v-800zM500 1100v200h200v-200h-200z" />
    <glyph glyph-name="multiply" unicode="&#xd7;" 
d="M200 200v100h100v200h-100v100h-100v100h200v-100h100v-100h100v100h100v100h200v-100h-100v-100h-100v-200h100v-100h100v-100h-200v100h-100v100h-100v-100h-100v-100h-200v100h100z" />
    <glyph glyph-name="Oslash" unicode="&#xd8;" 
d="M200 100h-100v800h100v100h400v100h200v-100h-100v-100h100v-800h-100v-100h-400v-100h-200v100h100v100zM400 500v100h100v100h100v200h-300v-400h100zM400 400v-100h-100v-200h300v400h-100v-100h-100z" />
    <glyph glyph-name="Ugrave" unicode="&#xd9;" 
d="M800 100h-100v-100h-500v100h-100v900h200v-900h300v900h200v-900zM100 1300v100h200v-100h100v-100h100v-100h-200v100h-100v100h-100z" />
    <glyph glyph-name="Uacute" unicode="&#xda;" 
d="M800 100h-100v-100h-500v100h-100v900h200v-900h300v900h200v-900zM800 1400v-100h-100v-100h-100v-100h-200v100h100v100h100v100h200z" />
    <glyph glyph-name="Ucircumflex" unicode="&#xdb;" 
d="M200 100h-100v900h200v-900h300v900h200v-900h-100v-100h-500v100zM200 1100v100h100v100h100v100h100v-100h100v-100h100v-100h-200v100h-100v-100h-200z" />
    <glyph glyph-name="Udieresis" unicode="&#xdc;" 
d="M800 100h-100v-100h-500v100h-100v900h200v-900h300v900h200v-900zM100 1100v200h200v-200h-200zM500 1100v200h200v-200h-200z" />
    <glyph glyph-name="Yacute" unicode="&#xdd;" 
d="M900 700h-100v-100h-100v-100h-100v-500h-200v500h-100v100h-100v100h-100v300h200v-300h100v-100h200v100h100v300h200v-300zM400 1100v100h100v100h100v100h200v-100h-100v-100h-100v-100h-200z" />
    <glyph glyph-name="Thorn" unicode="&#xde;" 
d="M800 300h-100v-100h-400v-200h-200v1000h200v-200h400v-100h100v-400zM300 300h300v400h-300v-400z" />
    <glyph glyph-name="germandbls" unicode="&#xdf;" 
d="M200 900v100h500v-100h100v-200h-100v-200h100v-400h-100v-100h-200v100h100v400h-200v100h100v100h100v200h-300v-900h-200v900h100z" />
    <glyph glyph-name="agrave" unicode="&#xe0;" 
d="M200 100h-100v300h100v100h400v200h-400v100h500v-100h100v-700h-600v100zM200 1200h-100v100h200v-100h100v-100h100v-100h-200v100h-100v100zM600 100v300h-300v-300h300z" />
    <glyph glyph-name="aacute" unicode="&#xe1;" 
d="M200 100h-100v300h100v100h400v200h-400v100h500v-100h100v-700h-600v100zM400 1000v100h100v100h100v100h200v-100h-100v-100h-100v-100h-200zM600 100v300h-300v-300h300z" />
    <glyph glyph-name="acircumflex" unicode="&#xe2;" 
d="M200 100h-100v300h100v100h400v200h-400v100h500v-100h100v-700h-600v100zM200 1000v100h100v100h100v100h100v-100h100v-100h100v-100h-200v100h-100v-100h-200zM600 100v300h-300v-300h300z" />
    <glyph glyph-name="atilde" unicode="&#xe3;" 
d="M200 100h-100v300h100v100h400v200h-400v100h500v-100h100v-700h-600v100zM200 1200v100h200v-100h-100v-200h-200v200h100zM400 1200h100v-100h-100v100zM600 100v300h-300v-300h300zM600 1100v200h200v-200h-100v-100h-200v100h100z" />
    <glyph glyph-name="adieresis" unicode="&#xe4;" 
d="M200 100h-100v300h100v100h400v200h-400v100h500v-100h100v-700h-600v100zM200 1000v200h200v-200h-200zM600 100v300h-300v-300h300zM600 1000v200h200v-200h-200z" />
    <glyph glyph-name="aring" unicode="&#xe5;" 
d="M200 100h-100v300h100v100h400v200h-400v100h500v-100h100v-700h-600v100zM200 1000v200h100v100h300v-100h100v-200h-100v-100h-300v100h-100zM400 1000h100v200h-100v-200zM600 100v300h-300v-300h300z" />
    <glyph glyph-name="ae" unicode="&#xe6;" 
d="M0 100v300h100v100h300v200h-300v100h400v-100h100v-200h200v200h-200v100h300v-100h100v-300h-400v-300h400v-100h-500v100h-100v300h-200v-300h200v-100h-300v100h-100z" />
    <glyph glyph-name="ccedilla" unicode="&#xe7;" 
d="M200 100h-100v600h100v100h500v-100h100v-100h-200v100h-300v-600h300v100h200v-100h-100v-100h-100v-300h-100v-100h-300v100h200v300h-200v100z" />
    <glyph glyph-name="egrave" unicode="&#xe8;" 
d="M200 100h-100v600h100v100h500v-100h100v-300h-500v-300h500v-100h-600v100zM200 1200h-100v100h200v-100h100v-100h100v-100h-200v100h-100v100zM600 500v200h-300v-200h300z" />
    <glyph glyph-name="eacute" unicode="&#xe9;" 
d="M200 100h-100v600h100v100h500v-100h100v-300h-500v-300h500v-100h-600v100zM400 1000v100h100v100h100v100h200v-100h-100v-100h-100v-100h-200zM600 500v200h-300v-200h300z" />
    <glyph glyph-name="ecircumflex" unicode="&#xea;" 
d="M200 100h-100v600h100v100h500v-100h100v-300h-500v-300h500v-100h-600v100zM200 1000v100h100v100h100v100h100v-100h100v-100h100v-100h-200v100h-100v-100h-200zM600 500v200h-300v-200h300z" />
    <glyph glyph-name="edieresis" unicode="&#xeb;" 
d="M200 100h-100v600h100v100h500v-100h100v-300h-500v-300h500v-100h-600v100zM200 1000v200h200v-200h-200zM600 500v200h-300v-200h300zM600 1000v200h200v-200h-200z" />
    <glyph glyph-name="igrave" unicode="&#xec;" 
d="M900 100v-100h-800v100h300v600h-300v100h500v-700h300zM300 1200h-100v100h200v-100h100v-100h100v-100h-200v100h-100v100z" />
    <glyph glyph-name="iacute" unicode="&#xed;" 
d="M900 100v-100h-800v100h300v600h-300v100h500v-700h300zM800 1200h-100v-100h-100v-100h-200v100h100v100h100v100h200v-100z" />
    <glyph glyph-name="icircumflex" unicode="&#xee;" 
d="M900 100v-100h-800v100h300v600h-300v100h500v-700h300zM200 1000v100h100v100h100v100h100v-100h100v-100h100v-100h-200v100h-100v-100h-200z" />
    <glyph glyph-name="idieresis" unicode="&#xef;" 
d="M100 1200h200v-200h-200v200zM900 100v-100h-800v100h300v600h-300v100h500v-700h300zM500 1200h200v-200h-200v200z" />
    <glyph glyph-name="eth" unicode="&#xf0;" 
d="M900 1200v-100h-100v100h100zM900 200h-100v-100h-100v-100h-400v100h-100v100h-100v400h100v100h100v100h300v100h-400v100h200v100h-100v100h200v-100h300v-100h-100v-100h100v-100h100v-600zM400 200v-100h200v100h100v500h-300v-100h-100v-400h100z" />
    <glyph glyph-name="ntilde" unicode="&#xf1;" 
d="M200 1200v100h200v-100h-100v-200h-200v200h100zM400 1200h100v-100h-100v100zM600 0v700h-300v-700h-200v800h600v-100h100v-700h-200zM600 1100v200h200v-200h-100v-100h-200v100h100z" />
    <glyph glyph-name="ograve" unicode="&#xf2;" 
d="M200 100h-100v600h100v100h500v-100h100v-600h-100v-100h-500v100zM200 1200v100h200v-100h100v-100h100v-100h-200v100h-100v100h-100zM600 100v600h-300v-600h300z" />
    <glyph glyph-name="oacute" unicode="&#xf3;" 
d="M200 100h-100v600h100v100h500v-100h100v-600h-100v-100h-500v100zM400 1000v100h100v100h100v100h200v-100h-100v-100h-100v-100h-200zM600 100v600h-300v-600h300z" />
    <glyph glyph-name="ocircumflex" unicode="&#xf4;" 
d="M200 100h-100v600h100v100h500v-100h100v-600h-100v-100h-500v100zM200 1000v100h100v100h100v100h100v-100h100v-100h100v-100h-200v100h-100v-100h-200zM600 100v600h-300v-600h300z" />
    <glyph glyph-name="otilde" unicode="&#xf5;" 
d="M200 100h-100v600h100v100h500v-100h100v-600h-100v-100h-500v100zM200 1200v100h200v-100h-100v-200h-200v200h100zM400 1200h100v-100h-100v100zM600 100v600h-300v-600h300zM600 1100v200h200v-200h-100v-100h-200v100h100z" />
    <glyph glyph-name="odieresis" unicode="&#xf6;" 
d="M800 100h-100v-100h-500v100h-100v600h100v100h500v-100h100v-600zM100 1200h200v-200h-200v200zM300 100h300v600h-300v-600zM500 1200h200v-200h-200v200z" />
    <glyph glyph-name="divide" unicode="&#xf7;" 
d="M400 100v200h200v-200h-200zM400 1000h200v-200h-200v200zM900 500h-800v100h800v-100z" />
    <glyph glyph-name="oslash" unicode="&#xf8;" 
d="M200 100h-100v600h100v100h400v100h200v-100h-100v-100h100v-600h-100v-100h-400v-100h-200v100h100v100zM400 200h-100v-100h300v300h-100v-100h-100v-100zM400 400v100h100v100h100v100h-300v-300h100z" />
    <glyph glyph-name="ugrave" unicode="&#xf9;" 
d="M800 0h-600v100h-100v700h200v-700h300v700h200v-800zM100 1200v100h200v-100h100v-100h100v-100h-200v100h-100v100h-100z" />
    <glyph glyph-name="uacute" unicode="&#xfa;" 
d="M800 0h-600v100h-100v700h200v-700h300v700h200v-800zM800 1200h-100v-100h-100v-100h-200v100h100v100h100v100h200v-100z" />
    <glyph glyph-name="ucircumflex" unicode="&#xfb;" 
d="M200 100h-100v700h200v-700h300v700h200v-800h-600v100zM200 1000v100h100v100h100v100h100v-100h100v-100h100v-100h-200v100h-100v-100h-200z" />
    <glyph glyph-name="udieresis" unicode="&#xfc;" 
d="M800 0h-600v100h-100v700h200v-700h300v700h200v-800zM100 1200h200v-200h-200v200zM500 1200h200v-200h-200v200z" />
    <glyph glyph-name="yacute" unicode="&#xfd;" 
d="M200 100h-100v700h200v-700h300v700h200v-1000h-100v-100h-500v100h400v200h-400v100zM400 1000v100h100v100h100v100h200v-100h-100v-100h-100v-100h-200z" />
    <glyph glyph-name="thorn" unicode="&#xfe;" 
d="M900 200h-100v-100h-100v-100h-300v100h200v100h100v400h-100v100h-200v100h300v-100h100v-100h100v-400zM400 200v-100h-100v-400h-200v1400h200v-400h100v-100h-100v-400h100z" />
    <glyph glyph-name="ydieresis" unicode="&#xff;" 
d="M800 -200h-100v-100h-500v100h400v200h-400v100h-100v700h200v-700h300v700h200v-1000zM100 1200h200v-200h-200v200zM500 1200h200v-200h-200v200z" />
  </font>
</defs>
</svg>
